<svg width="24" height="24" viewBox="0 0 24 24" fill="none" xmlns="http://www.w3.org/2000/svg">
<path opacity="0.56" d="M15 10.1563C15 13.004 12.6915 15.3125 9.84375 15.3125C9.51504 15.3125 9.19365 15.2814 8.88202 15.2226L8.17855 16.014C8.11258 16.0882 8.03164 16.1476 7.94106 16.1883C7.85048 16.229 7.75231 16.25 7.65302 16.25H6.5625V17.4219C6.5625 17.8102 6.24771 18.125 5.85938 18.125H4.6875V19.2969C4.6875 19.6852 4.37271 20 3.98438 20H0.703125C0.314795 20 0 19.6852 0 19.2969V17.01C0 16.8235 0.0740918 16.6447 0.205928 16.5128L4.94622 11.7725C4.77855 11.2641 4.6875 10.7208 4.6875 10.1562C4.6875 7.30854 6.99601 5.00003 9.84372 5C12.6998 4.99997 15 7.30013 15 10.1563ZM9.84375 8.75C9.84375 9.52666 10.4733 10.1562 11.25 10.1562C12.0267 10.1562 12.6563 9.52666 12.6563 8.75C12.6563 7.97334 12.0267 7.34375 11.25 7.34375C10.4733 7.34375 9.84375 7.97334 9.84375 8.75Z" fill="white"/>
</svg>
